<?xml version="1.0" encoding="UTF-8" standalone="no"?>
<!DOCTYPE svg PUBLIC "-//W3C//DTD SVG 20010904//EN"
              "http://www.w3.org/TR/2001/REC-SVG-20010904/DTD/svg10.dtd">

<svg xmlns="http://www.w3.org/2000/svg"
     width="270" height="100"
     viewBox="20 0 236 100">
  <path id="Selection"
        fill="rgb(234, 234, 234)" stroke="rgb(234, 234, 234)" stroke-width="1"
        d="M 147.00,27.44
           C 135.90,29.52 126.38,33.85 120.35,44.00
             106.55,67.22 120.67,98.66 149.00,99.00
             156.93,99.09 161.84,98.86 169.00,94.83
             195.94,79.66 192.05,38.22 162.00,29.04
             156.62,27.39 152.60,26.74 147.00,27.44 Z
           M 248.00,91.00
           C 248.18,96.18 248.33,97.75 254.00,97.98
             256.24,98.07 260.47,98.31 261.98,96.40
             263.15,94.92 262.99,91.82 263.00,90.00
             263.00,90.00 263.00,68.00 263.00,68.00
             262.98,65.87 263.26,62.49 261.40,61.02
             259.92,59.85 256.82,60.01 255.00,60.00
             255.00,60.00 238.00,60.00 238.00,60.00
             236.01,60.00 232.19,59.77 230.60,61.02
             228.35,62.80 228.35,71.20 230.60,72.98
             231.94,74.04 234.38,73.97 236.00,74.00
             236.00,74.00 246.00,74.00 246.00,74.00
             235.92,92.71 210.36,85.47 209.09,65.00
             208.18,50.14 221.63,38.86 236.00,44.13
             244.66,47.31 243.62,52.54 253.00,52.96
             266.95,53.59 261.09,44.33 254.96,38.02
             248.23,31.09 236.73,26.48 227.00,27.18
             220.98,27.62 215.23,29.35 210.00,32.34
             189.96,43.76 187.25,73.90 203.17,89.83
             210.57,97.22 217.94,99.04 228.00,99.00
             237.05,98.96 241.23,97.05 248.00,91.00 Z
           M 54.00,57.00
           C 55.18,53.86 55.78,52.43 55.96,49.00
             57.16,25.11 30.71,28.97 15.00,29.00
             7.27,29.02 6.06,28.87 6.00,37.00
             6.00,37.00 6.00,89.00 6.00,89.00
             6.00,90.99 5.77,94.81 7.02,96.40
             9.03,98.93 22.42,98.00 26.00,98.00
             34.79,98.00 48.76,99.42 56.00,94.35
             68.61,85.51 68.45,63.85 54.00,57.00 Z
           M 90.00,83.00
           C 90.00,83.00 90.00,38.00 90.00,38.00
             90.00,36.01 90.23,32.19 88.98,30.60
             87.16,28.30 76.84,28.30 75.02,30.60
             73.77,32.19 74.00,36.01 74.00,38.00
             74.00,38.00 74.00,89.00 74.00,89.00
             74.00,91.30 73.62,95.41 75.60,96.98
             77.08,98.15 80.18,97.99 82.00,98.00
             82.00,98.00 105.00,98.00 105.00,98.00
             110.64,97.99 113.57,98.67 113.96,92.00
             114.34,85.36 113.84,83.12 107.00,83.00
             107.00,83.00 90.00,83.00 90.00,83.00 Z
           M 147.00,43.33
           C 154.68,42.48 161.43,43.75 166.61,50.04
             176.24,61.76 170.15,80.69 155.00,83.53
             128.48,88.51 120.89,49.60 147.00,43.33 Z
           M 22.00,53.00
           C 22.00,53.00 22.00,44.00 22.00,44.00
             24.92,44.00 34.72,43.67 36.85,44.60
             40.20,46.05 40.51,50.29 38.40,51.98
             36.40,53.57 25.08,53.00 22.00,53.00 Z
           M 22.00,83.00
           C 22.00,83.00 22.00,67.00 22.00,67.00
             27.05,67.00 41.07,66.25 44.94,68.31
             50.48,71.26 49.85,79.33 45.77,81.83
             42.65,83.73 26.56,83.00 22.00,83.00 Z" />
</svg>
