<?xml version="1.0" encoding="utf-8"?>
<svg viewBox="0.9218758344650269 -23.687498092651367 295.453124165535 125.21874809265137" width="295.453124165535" height="125.21874809265137" xmlns="http://www.w3.org/2000/svg">
  <path d="M 72.982 8.432 L 72.982 78.132 L 55.852 78.132 L 55.852 44.752 L 45.962 61.982 L 35.002 61.982 L 25.112 44.752 L 25.112 78.132 L 7.982 78.132 L 7.982 8.432 L 24.822 8.432 L 40.482 39.172 L 56.152 8.432 L 72.982 8.432 ZM 138.975 43.282 C 138.975 43.869 138.975 45.042 138.975 46.802 C 138.975 48.569 138.975 49.762 138.975 50.382 C 138.975 51.002 138.959 52.062 138.925 53.562 C 138.892 55.062 138.792 56.155 138.625 56.842 C 138.465 57.522 138.285 58.499 138.085 59.772 C 137.892 61.045 137.599 62.092 137.205 62.912 C 136.819 63.725 136.379 64.655 135.885 65.702 C 135.399 66.742 134.812 67.702 134.125 68.582 C 133.439 69.469 132.639 70.369 131.725 71.282 C 127.159 75.849 120.892 78.132 112.925 78.132 L 87.085 78.132 L 87.085 8.432 L 112.925 8.432 C 120.892 8.432 127.159 10.715 131.725 15.282 C 132.705 16.262 133.585 17.322 134.365 18.462 C 135.152 19.602 135.789 20.599 136.275 21.452 C 136.769 22.299 137.195 23.455 137.555 24.922 C 137.909 26.389 138.185 27.449 138.385 28.102 C 138.579 28.755 138.725 30.012 138.825 31.872 C 138.925 33.732 138.975 34.875 138.975 35.302 C 138.975 35.729 138.975 37.082 138.975 39.362 C 138.975 41.649 138.975 42.955 138.975 43.282 Z M 121.445 54.542 C 121.705 52.649 121.835 48.895 121.835 43.282 C 121.835 37.669 121.705 33.915 121.445 32.022 C 121.185 30.129 120.695 28.659 119.975 27.612 C 118.215 25.005 115.475 23.702 111.755 23.702 L 104.215 23.702 L 104.215 62.862 L 111.755 62.862 C 115.475 62.862 118.215 61.555 119.975 58.942 C 120.695 57.902 121.185 56.435 121.445 54.542 ZM 202.898 57.572 C 202.898 64.032 200.875 69.075 196.828 72.702 C 192.781 76.322 187.561 78.132 181.168 78.132 L 150.818 78.132 L 150.818 8.432 L 179.698 8.432 C 186.811 8.432 192.295 10.259 196.148 13.912 C 199.995 17.565 201.918 22.459 201.918 28.592 C 201.918 34.339 199.375 38.942 194.288 42.402 C 195.328 43.055 196.208 43.659 196.928 44.212 C 197.648 44.765 198.528 45.645 199.568 46.852 C 200.615 48.059 201.431 49.575 202.018 51.402 C 202.605 53.229 202.898 55.285 202.898 57.572 Z M 184.248 60.952 C 185.261 59.745 185.768 58.292 185.768 56.592 C 185.768 54.899 185.261 53.462 184.248 52.282 C 183.235 51.109 181.651 50.522 179.498 50.522 L 167.948 50.522 L 167.948 62.762 L 179.498 62.762 C 181.651 62.762 183.235 62.159 184.248 60.952 Z M 183.318 33.492 C 184.298 32.379 184.788 31.039 184.788 29.472 C 184.788 27.905 184.298 26.569 183.318 25.462 C 182.338 24.355 180.771 23.802 178.618 23.802 L 167.948 23.802 L 167.948 35.152 L 178.618 35.152 C 180.771 35.152 182.338 34.599 183.318 33.492 ZM 278.477 8.432 L 296.397 8.432 L 277.307 78.132 L 263.307 78.132 L 252.047 43.772 L 240.787 78.132 L 226.887 78.132 L 207.697 8.432 L 225.617 8.432 L 234.717 45.242 L 245.977 8.432 L 258.117 8.432 L 269.377 45.242 L 278.477 8.432 Z" transform="matrix(1, 0, 0, 1, 0, 0)" style="fill: rgb(234, 234, 234); white-space: pre;"/>
</svg>